**ABCDEFGHIJKLMNOPQRSTUVWXYZabcdefghijklmnopqrstuvwxyz**************************
**PARASOLID !"#$%&'()*+,-./:;<=>?@[\]^_`{|}~0123456789**************************
**PART1;
MC=unknown;
MC_MODEL=unknown;
MC_ID=unknown;
OS=unknown;
OS_RELEASE=unknown;
FRU=Parasolid 37.1.212;
APPL=Onshape;
SITE=unknown;
USER=unknown;
FORMAT=text;
GUISE=transmit;
KEY=BTGapi::writeModels_.xmt;
FILE=BTGapi::writeModels_.xmt;
DATE=2026-01-21T19:12:26 (UTC);
**PART2;
SCH=SCH_3701212_37102;
USFLD_SIZE=0;
**PART3;
**END_OF_HEADER*****************************************************************
T51 : TRANSMIT FILE created by modeller version 370121223 SCH_3701212_37102_1300
6239 0 10 21 CCCCI7 lattice222 0 CCCI4 mesh1006 0 I8 polyline1008 0 CCCCCCCCCCA1
6 mesh_offset_data206 0 Z1 17 2 3 0 0 0 0 0 0 0 0 1e3 1e-8 0 0 0 1 0 1 4 0 81 25
5 1 2 2 5 1 6 0 0 0 7 70 11 CI9 list_type0 0 1 uI10 notransmit0 0 1 lCCCDCCDI12
 finger_index0 0 1 dI12 finger_block1012 0 CZ3 0 4 T1 0 0 3 20 1 8 8 11 255 4 15
 9 1 10 11 1 12 0 0 0 81 1 9 17 13 4 0 0 14 0 15 12 36 CCCI7 lattice222 0 CCCI4
 mesh1006 0 I8 polyline1008 0 CCCCCCCDI5 owner1040 0 CCCI16 boundary_lattice222
 0 CCCI13 boundary_mesh1006 0 I17 boundary_polyline1008 0 CCCA16 index_map_offse
t0 0 1 dA9 index_map82 0 A17 node_id_index_map82 0 A20 schema_embedding_map82 0
 A5 child12 0 A14 lowest_node_id0 0 1 dA16 mesh_offset_data206 0 Z10 237 16 17 0
 0 0 0 0 0 0 1e3 1e-8 4 18 0 1 0 1 2 19 0 20 21 22 0 0 23 24 25 0 0 0 0 0 0 0 10
0 10 CCCCCCCCCA9 precision229 0 Z11 16 4 0 0 1 0 0 0 1 0 0 0 1 0 0 0 1 0 ?0 11 1
2 12 14 1 27 30 1 29 4 0 0 81 1 14 14 13 12 0 0 26 9 28 12 27 237 34 35 0 0 0 0
 0 0 0 1e3 1e-8 12 32 33 1 0 1 2 31 0 38 40 36 0 0 39 37 41 0 0 0 0 0 0 0 100 30
 13 12 0 0 1 0 0 0 1 0 0 0 1 0 0 0 1 0 ?0 11 29 9 26 1 32 45 1 43 12 0 0 81 1 26
 11 13 29 0 0 42 14 44 12 32 181 46 50 0 0 0 0 0 0 0 1e3 1e-8 29 0 27 1 0 1 2 48
 0 47 49 51 0 0 55 52 53 0 0 0 0 0 0 0 100 45 10 29 0 0 1 0 0 0 1 0 0 0 1 0 0 0
 1 0 ?0 11 43 6 42 1 18 54 1 57 29 0 0 81 1 42 8 13 43 0 0 60 26 59 12 18 2314 5
6 58 0 0 0 0 0 0 0 1e3 1e-8 43 33 10 1 0 1 2 61 0 62 64 63 0 0 65 66 70 0 0 0 0
 0 0 0 100 54 7 43 0 0 1 0 0 0 1 0 0 0 1 0 0 0 1 0 ?0 11 57 3 60 1 33 68 1 0 43
 0 0 81 1 60 5 13 57 0 0 0 42 67 12 33 181 69 72 0 0 0 0 0 0 0 1e3 1e-8 57 27 18
 1 0 1 2 75 0 74 71 73 0 0 76 80 77 0 0 0 0 0 0 0 100 68 4 57 0 0 1 0 0 0 1 0 0
 0 1 0 0 0 1 0 ?0 81 1 69 181 5 33 78 0 0 0 79 70 72 0 4 T33 0 0 3 20 1 81 81 13
 255 75 137 0 33 0 85 0 0 83 0 50 255 74 132 0 85 82 0 0 +.028 -1387778780781446
e-32 .005 1 -578241158658936e-30 0 578241158658936e-30 1 0 30 255 71 136 0 80 84
 0 0 +.028 .018 .005 0 0 -1 29 255 73 113 0 89 90 0 .028 -.018 0 19 9 CCCCCCI5 f
rame230 0 CA5 owner12 0 Z76 48 0 33 83 0 87 0 V0 16 255 80 120 0 ?88 0 86 71 0 0
 33 18 255 77 42 0 93 0 95 91 ?33 17 255 93 0 94 92 96 77 100 98 0 97 +18 95 37
 0 96 77 99 101 ?33 29 91 44 0 77 101 105 .028 -.018 .005 29 101 39 0 95 103 91
 .02 -.018 .005 29 105 116 0 102 91 104 .028 .018 0 18 102 104 0 88 106 0 105 ?3
3 29 104 115 0 106 105 90 .02 .018 0 18 106 100 0 110 107 102 104 ?33 29 90 114
 0 107 104 73 .02 -.018 0 18 107 96 0 108 89 106 90 ?33 17 108 0 109 112 110 107
 115 114 0 111 +18 89 92 0 113 116 107 73 ?33 17 113 0 117 119 118 89 97 120 0 1
21 +18 116 27 0 125 99 89 123 ?33 17 125 0 117 118 119 116 88 80 0 92 -18 99 32
 0 122 95 116 103 ?33 29 123 29 0 116 0 103 .028 .018 .005 29 103 34 0 99 123 10
1 .02 .018 .005 17 122 0 124 127 130 99 110 86 0 129 -15 255 124 125 0 130 126 0
 17 127 0 124 88 122 116 128 131 0 0 +17 130 0 124 122 88 106 135 132 0 0 -17 11
0 0 109 108 129 106 122 86 0 115 +16 86 119 0 ?110 80 133 84 0 0 33 17 129 0 109
 110 112 99 96 134 0 128 -15 109 123 0 108 136 0 17 112 0 109 129 108 95 111 133
 0 100 -17 96 0 94 93 128 95 129 134 0 112 +16 134 17 0 ?96 98 131 140 0 0 33 17
 128 0 94 96 92 99 127 131 0 0 -15 94 6 0 92 138 0 17 92 0 94 128 93 116 118 137
 0 127 -16 131 12 0 ?127 134 137 139 0 0 33 16 137 7 0 ?118 131 144 145 0 0 33 3
0 139 14 0 131 145 140 0 +.024 .018 .005 1 0 0 30 145 9 0 137 0 139 0 +.028 -138
7778780781446e-32 .005 -578241158658936e-30 -1 0 30 140 19 0 134 139 142 0 +.02
 -1040834085586084e-32 .005 -192747052886312e-30 -1 0 30 142 24 0 98 140 143 0 +
.024 -.018 .005 1 0 0 16 98 22 0 ?93 120 134 142 0 0 33 30 143 112 0 141 142 148
 0 +.028 -1387778780781446e-32 0 -578241158658936e-30 -1 0 16 141 88 0 ?150 132
 0 143 0 0 33 30 148 111 0 132 143 146 0 +.024 .018 0 1 0 0 16 132 84 0 ?135 114
 141 148 0 0 33 30 146 110 0 114 148 149 0 +.02 -1040834085586084e-32 0 -1927470
52886312e-30 -1 0 16 114 80 0 ?108 144 132 146 0 0 33 30 149 109 0 144 146 147 0
 +.024 -.018 0 1 0 0 16 144 76 0 ?121 137 114 149 0 0 33 30 147 133 0 120 149 15
1 0 +.028 -.018 .005 0 0 -1 16 120 117 0 ?113 133 98 147 0 0 33 30 151 134 0 133
 147 84 0 +.02 -.018 .005 0 0 -1 16 133 118 0 ?111 86 120 151 0 0 33 30 84 135 0
 86 151 71 0 +.02 .018 .005 0 0 -1 17 111 0 155 121 100 107 112 133 0 153 +15 15
5 121 0 121 152 0 17 121 0 155 97 111 89 153 144 0 150 +17 100 0 155 111 97 95 9
3 98 0 0 -17 153 0 154 115 150 107 121 144 0 0 -15 154 75 0 150 156 0 17 115 0 1
54 135 153 106 108 114 0 130 -17 150 0 154 153 135 89 119 141 0 0 +17 135 0 154
 150 115 102 130 132 0 0 +17 119 0 117 125 113 102 150 141 0 135 -15 117 127 0 1
19 85 0 14 255 85 128 0 ?126 0 117 75 74 +0 0 126 0 87 14 126 126 0 ?136 85 124
 75 82 +0 0 136 85 87 13 87 49 0 0 0 0 0 0 76 85 14 136 124 0 ?152 126 109 75 16
0 -0 0 152 126 87 50 82 131 0 126 160 74 0 +.024 .018 .005 0 1 0 0 0 1 50 160 13
0 0 136 158 82 0 +.02 -1040834085586084e-32 .005 1 -192747052886312e-30 0 192747
052886312e-30 1 0 50 158 129 0 152 157 160 0 +.024 -.018 .005 0 1 0 0 0 1 14 152
 122 0 ?138 136 155 75 158 -0 0 138 136 87 50 157 108 0 156 159 158 0 +346944695
1953615e-33 -1040834085586084e-32 0 0 0 1 1 0 0 14 156 68 0 ?0 138 154 75 157 -0
 0 0 138 87 50 159 3 0 138 0 157 0 +3469446951953615e-33 -1040834085586084e-32 .
005 0 0 1 1 0 0 14 138 1 0 ?156 152 94 75 159 +0 0 156 152 87 17 97 0 155 100 12
1 77 113 120 0 118 -17 118 0 117 113 125 77 92 137 0 0 +17 88 0 124 130 127 102
 125 80 0 119 +19 83 138 0 33 0 76 75 0 S0 74 4 CI16 index_map_offset0 0 1 dCCZ2
0 81 3 0 0 161 78 69 0 0 0 0 0 0 0 0 0 0 0 0 0 0 0 0 0 81 1 161 179 165 33 0 78
 0 0 162 81 1 78 180 163 33 161 69 0 0 164 80 7 CCCCCDI12 legal_owners0 17 1 lCZ
1 163 5 167 8038 0 0 0 0 0 0 0 0 0 TTTTTTTTTTTTTFTFT10 98 255 6 164 80 97 114 11
6 32 53 79 255 14 167 SDL/TYSA_UNAME80 1 165 170 169 8040 0 0 0 0 3 5 0 0 0 TTTF
FFFFFFFFFFFFF2 83 255 3 162 .768627450980392 .886274509803922 .952941176470588 7
9 17 169 SDL/TYSA_COLOUR_280 1 5 166 168 8017 0 0 0 0 0 0 0 0 0 TTTTTTTTTTTTTFTF
T3 84 255 6 79 Part 579 13 168 SDL/TYSA_NAME80 1 13 171 172 9000 0 0 0 0 3 5 0 0
 0 FTFFFFFFFFFFFFFFF3 84 17 67 MMrIRKlJ2gHfHkGYK79 14 172 BTI/InstanceId81 1 56
 2314 5 18 174 0 0 0 173 70 58 0 4 T18 0 0 3 20 1 175 175 13 61 487 0 18 0 176 0
 0 180 0 50 62 474 0 178 177 0 0 +-.0213138942734443 -.01129174769710426 .02755
 .701071425564471 .713091057479338 0 -.713091057479338 .701071425564471 0 30 64
 1802 0 66 179 0 0 +1040834085586084e-32 .01258349539420852 .0248957244023843 1
 -173472347597681e-30 0 29 63 1845 0 70 182 0 .0185 -.01 .0248957244023843 19 65
 196 0 18 180 0 185 0 V0 16 66 1800 0 ?184 0 181 64 0 0 18 18 70 1843 0 183 0 18
6 63 ?18 17 183 0 190 187 188 70 189 191 0 195 -18 186 1823 0 193 70 192 182 ?18
 17 193 0 194 199 200 186 197 198 0 196 +18 192 1809 0 203 186 205 201 ?18 29 18
2 1825 0 186 201 63 .0185 .01 .00589572440238432 29 201 1811 0 192 204 182 .0185
 -.01258349539420852 .00589572440238432 29 204 1787 0 205 202 201 .0185 .0125834
9539420852 .0248957244023843 18 205 1785 0 206 192 210 204 ?18 29 202 1311 0 210
 208 204 -.02262778854688855 .008 .0228957244023843 18 210 1309 0 207 205 209 20
2 ?18 29 208 1297 0 209 211 202 .02262778854688855 .008 .00789572440238432 18 20
9 1295 0 215 210 213 208 ?18 29 211 1277 0 213 212 208 -.02 .008 .00789572440238
432 18 213 1275 0 214 209 216 211 ?18 29 212 1259 0 216 220 211 .02 .008 .022895
7244023843 18 216 1257 0 217 213 218 212 ?18 29 220 655 0 218 219 212 -.02262778
854688855 -.01 .02355 18 218 651 0 222 216 225 220 ?18 29 219 639 0 225 224 220
 .02262778854688855 .01 .02355 18 225 635 0 221 218 223 219 ?18 29 224 415 0 226
 227 219 .02262778854688855 -.01 0 18 226 354 0 229 228 230 224 ?18 29 227 416 0
 230 231 224 .02 -.01258349539420852 0 18 230 358 0 235 226 233 227 ?18 29 231 4
17 0 233 232 227 .02 -.01 0 18 233 362 0 234 230 237 231 ?18 29 232 418 0 237 24
0 231 .02 .01258349539420852 0 18 237 366 0 239 233 236 232 ?18 29 240 419 0 236
 238 232 .02262778854688855 .01 0 18 236 370 0 241 237 245 240 ?18 29 238 420 0
 245 242 240 .02 .01 0 18 245 374 0 243 236 244 238 ?18 29 242 421 0 244 246 238
 -.02262778854688855 .01 0 18 244 378 0 250 245 248 242 ?18 29 246 422 0 248 247
 242 -.02 .01258349539420852 0 18 248 382 0 249 244 254 246 ?18 29 247 423 0 254
 255 246 -.02 .01 0 18 254 386 0 252 248 253 247 ?18 29 255 424 0 253 251 247 -.
02 -.01 0 18 253 390 0 258 254 260 255 ?18 29 251 425 0 260 256 255 -.02 -.01258
349539420852 0 18 260 394 0 259 253 257 251 ?18 29 256 426 0 257 261 251 -.02262
778854688855 -.01 0 18 257 398 0 265 260 263 256 ?18 29 261 187 0 223 262 256 .0
2 -.01258349539420852 .02755 18 223 185 0 264 225 266 261 ?18 29 262 182 0 266 2
70 261 .02 -.01 .02755 18 266 180 0 268 223 267 262 ?18 29 270 177 0 267 269 262
 .02 .01258349539420852 .02755 18 267 175 0 271 266 275 270 ?18 29 269 167 0 275
 272 270 .02 .01 .02755 18 275 165 0 273 267 274 269 ?18 29 272 162 0 274 277 26
9 -.02262778854688855 .01 .02755 18 274 160 0 280 275 279 272 ?18 29 277 157 0 2
79 276 272 -.02 .01258349539420852 .02755 18 279 155 0 278 274 281 277 ?18 29 27
6 152 0 281 282 277 -.02 .01 .02755 18 281 150 0 284 279 283 276 ?18 29 282 147
 0 283 285 276 -.02 -.01 .02755 18 283 145 0 286 281 290 282 ?18 29 285 142 0 29
0 288 282 -.02 -.01258349539420852 .02755 18 290 140 0 287 283 228 285 ?18 29 28
8 137 0 228 289 285 -.02262778854688855 -.01 .02755 18 228 135 0 292 290 226 288
 ?18 29 289 1126 0 263 295 288 .02262778854688855 -.01 .02755 18 263 849 0 294 2
57 291 289 ?18 29 295 1127 0 291 293 289 .02262778854688855 -.01 .02355 18 291 8
46 0 296 263 300 295 ?18 29 293 1128 0 300 297 295 .02262778854688855 .01 .02755
 18 300 835 0 298 291 299 293 ?18 29 297 1131 0 299 301 293 -.02262778854688855
 .01 .02355 18 299 1013 0 305 300 303 297 ?18 29 301 1133 0 302 304 297 -.028 -.
01 .02355 18 302 998 0 309 310 307 301 ?18 29 304 1134 0 307 308 301 -.028 .01 .
02355 18 307 1002 0 306 302 313 304 ?18 29 308 1137 0 315 311 304 -.028 -.01 .02
755 18 315 1000 0 314 312 310 308 ?18 29 311 1138 0 310 316 308 -.028 .01 .02755
 18 310 995 0 320 315 302 311 ?18 29 316 1140 0 318 317 311 .028 .01 .02355 18 3
18 853 0 319 321 312 316 ?18 29 317 1141 0 312 325 316 .028 -.01 .02355 18 312 8
47 0 323 318 315 317 ?18 29 325 1144 0 303 322 317 .028 .01 .02755 18 303 840 0
 324 299 321 325 ?18 29 322 1145 0 321 326 325 .028 -.01 .02755 18 321 850 0 330
 303 318 322 ?18 29 326 1643 0 313 327 322 .02262778854688855 -.008 .02289572440
23843 18 313 1493 0 328 307 329 326 ?18 29 327 1644 0 329 332 326 .02 -.008 .022
8957244023843 18 329 1520 0 335 313 334 327 ?18 29 332 1645 0 334 331 327 -.02 -
.008 .0228957244023843 18 334 1499 0 333 329 336 332 ?18 29 331 1646 0 336 337 3
32 -.02262778854688855 -.008 .0228957244023843 18 336 1491 0 339 334 338 331 ?18
 29 337 1647 0 338 340 331 .02262778854688855 -.008 .00789572440238432 18 338 15
02 0 341 336 345 337 ?18 29 340 1648 0 345 343 337 .02 -.008 .00789572440238432
 18 345 1521 0 342 338 344 340 ?18 29 343 1649 0 344 347 340 -.02 -.008 .0078957
2440238432 18 344 1507 0 350 345 349 343 ?18 29 347 1650 0 349 346 343 -.0226277
8854688855 -.008 .00789572440238432 18 349 1501 0 348 344 351 347 ?18 29 346 165
1 0 351 355 347 .02262778854688855 .008 .0228957244023843 18 351 1519 0 352 349
 353 346 ?18 29 355 1653 0 353 354 346 -.02 .008 .0228957244023843 18 353 1492 0
 356 351 360 355 ?18 29 354 1656 0 360 358 355 .02 .008 .00789572440238432 18 36
0 1522 0 357 353 359 354 ?18 29 358 1658 0 359 364 354 -.02262778854688855 .008
 .00789572440238432 18 359 1508 0 365 360 362 358 ?18 29 364 2174 0 362 363 358
 -.0185 -.01258349539420852 .0248957244023843 18 362 2026 0 361 359 368 364 ?18
 29 363 2175 0 368 370 364 -.0185 -.01 .0248957244023843 18 368 2029 0 366 362 3
69 363 ?18 29 370 2176 0 369 367 363 -.0185 .01 .0248957244023843 18 369 2023 0
 371 368 375 370 ?18 29 367 2177 0 375 373 370 -.0185 .01258349539420852 .024895
7244023843 18 375 2025 0 372 369 374 367 ?18 29 373 2178 0 374 376 367 -.0185 -.
01258349539420852 .00589572440238432 18 374 2033 0 380 375 378 373 ?18 29 376 21
79 0 378 377 373 -.0185 -.01 .00589572440238432 18 378 2036 0 379 374 381 376 ?1
8 29 377 2180 0 381 385 376 -.0185 .01 .00589572440238432 18 381 2031 0 382 378
 383 377 ?18 29 385 2181 0 383 384 377 -.0185 .01258349539420852 .00589572440238
432 18 383 2032 0 387 381 390 385 ?18 29 384 2182 0 390 389 385 .0185 -.01258349
539420852 .0248957244023843 18 390 2030 0 188 383 386 384 ?18 29 389 2184 0 386
 388 384 .0185 .01 .0248957244023843 18 386 2024 0 199 390 391 389 ?18 29 388 21
87 0 391 392 389 .0185 -.01 .00589572440238432 18 391 2042 0 187 386 394 388 ?18
 29 392 2189 0 394 0 388 .0185 .01258349539420852 .00589572440238432 18 394 2038
 0 200 391 0 392 ?18 17 200 0 194 193 206 394 393 395 0 197 +15 194 2109 0 199 3
96 0 17 206 0 194 200 199 205 400 398 0 184 -17 393 0 397 399 402 205 200 395 0
 0 -16 395 1789 0 ?200 405 404 401 0 0 18 17 197 0 403 387 196 394 193 198 0 402
 -15 403 2093 0 197 406 0 17 387 0 403 410 197 383 402 405 0 407 -17 196 0 403 1
97 410 186 408 409 0 411 -16 198 2001 0 ?193 415 413 412 413 413 18 17 402 0 397
 393 414 394 387 405 0 0 +15 397 1801 0 399 419 0 17 414 0 397 402 399 383 372 1
81 0 0 +16 405 1793 0 ?402 181 395 420 0 0 18 16 181 1797 0 ?414 66 405 179 0 0
 18 30 420 1795 0 405 401 179 0 +1040834085586084e-32 .01258349539420852 .005895
72440238432 1 -173472347597681e-30 0 30 401 1791 0 395 417 420 0 +.0185 .0125834
9539420852 .02755 -365204942310907e-30 633529586969486e-46 -1 30 179 1799 0 181
 420 64 0 +-.0185 .01258349539420852 .02755 -365204942310907e-30 633529586969486
e-46 -1 30 417 1271 0 404 418 401 0 +.02 -3469446951953615e-33 .0228957244023843
 -3469446951953615e-31 -1 0 16 404 1269 0 ?416 395 423 417 0 0 18 30 418 1268 0
 423 425 417 0 +.02 -.008 .02755 802470810161348e-46 2312964634635745e-31 1 16 4
23 1266 0 ?335 404 421 418 0 0 18 30 425 1264 0 421 424 418 0 +.02 -346944695195
3615e-33 .00789572440238432 -3469446951953615e-31 -1 0 16 421 1262 0 ?342 423 42
2 425 0 0 18 30 424 1260 0 422 426 425 0 +.02 .008 .02755 802470810161349e-46 23
12964634635745e-31 1 16 422 1258 0 ?430 421 428 424 0 0 18 30 426 658 0 428 427
 424 0 +-.02262778854688855 -3469446951953615e-33 .02355 0 -1 0 16 428 656 0 ?42
9 422 431 426 0 0 18 30 427 647 0 431 435 426 0 +.02262778854688855 -69388939039
0723e-32 .02355 0 -1 0 16 431 645 0 ?433 428 432 427 0 0 18 30 435 486 0 434 436
 427 0 +-.02262778854688855 -.01 .02755 0 0 -1 16 434 438 0 ?440 437 438 435 438
 438 18 30 436 485 0 439 442 435 0 +-.02 -.01258349539420852 .02755 0 0 -1 16 43
9 437 0 ?259 438 445 436 0 0 18 30 442 484 0 432 444 436 0 +-.02 -.01 .02755 0 0
 -1 16 432 436 0 ?258 431 441 442 0 0 18 30 444 483 0 441 443 442 0 +-.02 .01 .0
2755 0 0 -1 16 441 435 0 ?252 432 446 444 0 0 18 30 443 482 0 447 449 444 0 +-.0
2 .01258349539420852 .02755 0 0 -1 16 447 434 0 ?448 450 451 443 0 0 18 30 449 4
81 0 451 455 443 0 +-.02262778854688855 .01 .02755 0 0 -1 16 451 433 0 ?453 447
 452 449 452 452 18 30 455 480 0 446 454 449 0 +.02 .01 .02755 0 0 -1 16 446 432
 0 ?243 441 437 455 0 0 18 30 454 479 0 457 460 455 0 +.02262778854688855 .01 .0
2755 0 0 -1 16 457 431 0 ?459 456 458 454 458 458 18 30 460 478 0 450 461 454 0
 +.02 .01258349539420852 .02755 0 0 -1 16 450 430 0 ?465 458 447 460 0 0 18 30 4
61 477 0 437 462 460 0 +.02 -.01 .02755 0 0 -1 16 437 429 0 ?234 446 434 461 0 0
 18 30 462 476 0 445 463 461 0 +.02 -.01258349539420852 .02755 0 0 -1 16 445 428
 0 ?235 439 464 462 0 0 18 30 463 475 0 464 466 462 0 +.02262778854688855 -.01 .
02755 0 0 -1 16 464 427 0 ?296 445 456 463 456 456 18 30 466 403 0 470 468 463 0
 +.02262778854688855 -693889390390723e-32 0 0 -1 0 16 470 306 0 ?467 469 474 466
 0 0 18 30 468 404 0 474 475 466 0 +.02 -3469446951953615e-33 0 3469446951953615
e-31 1 0 16 474 310 0 ?472 470 473 468 0 0 18 30 475 405 0 473 471 468 0 +104083
4085586084e-32 .01258349539420852 0 -1 1734723475976805e-31 0 16 473 314 0 ?249
 474 478 475 0 0 18 30 471 406 0 478 480 475 0 +0 .01 0 1 -1734723475976805e-31
 0 16 478 318 0 ?476 473 479 471 0 0 18 30 480 407 0 479 477 471 0 +-.0226277885
4688855 -3469446951953615e-33 0 0 -1 0 16 479 322 0 ?481 478 485 480 0 0 18 30 4
77 408 0 485 483 480 0 +-.02 0 0 0 1 0 16 485 326 0 ?482 479 484 477 0 0 18 30 4
83 409 0 484 486 477 0 +0 -.01 0 1 0 0 16 484 330 0 ?490 485 488 483 0 0 18 30 4
86 410 0 488 487 483 0 +693889390390723e-32 -.01258349539420852 0 -1 0 0 16 488
 334 0 ?489 484 491 486 0 0 18 30 487 411 0 491 495 486 0 +.0213138942734443 -.0
1129174769710426 0 -.713091057479336 -.701071425564473 0 16 491 338 0 ?492 488 4
93 487 0 0 18 30 495 412 0 493 494 487 0 +.0213138942734443 .01129174769710426 0
 -.713091057479336 .701071425564473 0 16 493 342 0 ?239 491 497 495 0 0 18 30 49
4 413 0 497 500 495 0 +-.0213138942734443 .01129174769710426 0 -.713091057479338
 -.701071425564471 0 16 497 346 0 ?499 493 496 494 0 0 18 30 500 414 0 496 498 4
94 0 +-.0213138942734443 -.01129174769710426 0 .713091057479338 -.70107142556447
1 0 16 496 350 0 ?501 497 502 500 0 0 18 30 498 127 0 504 503 500 0 +.02 -346944
6951953615e-33 .02755 3469446951953615e-31 1 0 16 504 125 0 ?505 452 506 498 0 0
 18 30 503 122 0 506 510 498 0 +1040834085586084e-32 .01258349539420852 .02755 -
1 1734723475976805e-31 0 16 506 120 0 ?278 504 508 503 0 0 18 30 510 117 0 508 5
07 503 0 +0 .01 .02755 1 -1734723475976805e-31 0 16 508 115 0 ?273 506 509 510 0
 0 18 30 507 107 0 509 512 510 0 +-.02 0 .02755 0 1 0 16 509 105 0 ?515 508 514
 507 0 0 18 30 512 102 0 514 511 507 0 +0 -.01 .02755 1 0 0 16 514 100 0 ?513 50
9 516 512 0 0 18 30 511 97 0 516 520 512 0 +693889390390723e-32 -.01258349539420
852 .02755 -1 0 0 16 516 95 0 ?517 514 518 511 0 0 18 30 520 92 0 518 519 511 0
 +.0213138942734443 -.01129174769710426 .02755 -.713091057479336 -.7010714255644
73 0 16 518 90 0 ?521 516 525 520 0 0 18 30 519 77 0 525 523 520 0 +.02131389427
34443 .01129174769710426 .02755 -.713091057479336 .701071425564473 0 16 525 75 0
 ?271 518 522 519 0 0 18 30 523 62 0 522 524 519 0 +-.0213138942734443 .01129174
769710426 .02755 -.713091057479338 -.701071425564471 0 16 522 60 0 ?280 525 469
 523 0 0 18 30 524 42 0 469 529 523 0 +-.0213138942734443 -.01129174769710426 .0
2755 .713091057479338 -.701071425564471 0 16 469 40 0 ?287 522 470 524 0 0 18 30
 529 1093 0 530 527 524 0 +-.028 .01 .02755 0 0 -1 16 530 961 0 ?528 526 533 529
 0 0 18 30 527 1094 0 533 535 529 0 +-.028 -.01 .02755 0 0 -1 16 533 931 0 ?531
 530 534 527 0 0 18 30 535 1096 0 532 536 527 0 +-.024 -.01 .02355 -1 0 0 16 532
 991 0 ?309 540 538 535 0 0 18 30 536 1097 0 538 537 535 0 +-.028 52041704279304
2e-32 .02355 -3469446951953615e-31 -1 0 16 538 958 0 ?539 532 541 536 0 0 18 30
 537 1098 0 541 545 536 0 +-.024 .01 .02355 -1 0 0 16 541 955 0 ?306 538 543 537
 0 0 18 31 255 545 1100 0 543 542 537 0 +-.02545224130153655 .00625831494107842
 .02355 0 0 1 1 0 0 .00225 16 543 919 0 ?544 541 546 545 0 0 18 31 542 1101 0 54
6 550 545 0 +-.02545224130153655 -.00625831494107843 .02355 0 0 -1 1 0 0 .00225
 16 546 967 0 ?547 543 548 542 0 0 18 30 550 1102 0 534 549 542 0 +-.024 -.01 .0
2755 -1 0 0 16 534 970 0 ?314 533 552 550 0 0 18 30 549 1103 0 552 555 550 0 +-.
028 520417042793042e-32 .02755 -3469446951953615e-31 -1 0 16 552 916 0 ?554 534
 551 549 0 0 18 30 555 1104 0 551 553 549 0 +-.024 .01 .02755 -1 0 0 16 551 978
 0 ?320 552 556 555 0 0 18 31 553 1106 0 556 557 555 0 +-.02545224130153655 .006
25831494107842 .02755 0 0 1 1 0 0 .00225 16 556 964 0 ?559 551 540 553 0 0 18 31
 557 1107 0 540 558 553 0 +-.02545224130153655 -.00625831494107843 .02755 0 0 -1
 1 0 0 .00225 16 540 910 0 ?560 556 532 557 0 0 18 30 558 1110 0 502 561 557 0 +
.028 -.01 .02755 0 0 -1 16 502 814 0 ?565 496 563 558 0 0 18 30 561 1111 0 563 5
62 558 0 +.028 .01 .02755 0 0 -1 16 563 781 0 ?564 502 567 561 0 0 18 30 562 111
2 0 570 569 561 0 +.028 0 .02355 0 -1 0 16 570 829 0 ?566 568 571 562 0 0 18 30
 569 1113 0 571 575 562 0 +.024 -.01 .02355 1 0 0 16 571 761 0 ?323 570 572 569
 0 0 18 30 575 1115 0 572 573 569 0 +.024 .01 .02355 1 0 0 16 572 772 0 ?319 571
 574 575 0 0 18 31 573 1116 0 574 576 575 0 +.02545224130153655 .006258314941078
42 .02355 0 0 -1 1 0 0 .00225 16 574 805 0 ?580 572 526 573 0 0 18 31 576 1117 0
 526 578 573 0 +.02545224130153655 -.00625831494107844 .02355 0 0 1 1 0 0 .00225
 16 526 832 0 ?577 574 530 576 0 0 18 30 578 1118 0 567 579 576 0 +.028 0 .02755
 0 -1 0 16 567 811 0 ?584 563 585 578 0 0 18 30 579 1119 0 585 582 578 0 +.024 -
.01 .02755 1 0 0 16 585 756 0 ?330 567 583 579 0 0 18 30 582 1121 0 583 581 579
 0 +.024 .01 .02755 1 0 0 16 583 784 0 ?324 585 588 582 0 0 18 31 581 1122 0 588
 590 582 0 +.02545224130153655 .00625831494107842 .02755 0 0 -1 1 0 0 .00225 16
 588 817 0 ?586 583 568 581 0 0 18 31 590 1123 0 568 589 581 0 +.025452241301536
55 -.00625831494107844 .02755 0 0 1 1 0 0 .00225 16 568 808 0 ?587 588 570 590 0
 0 18 30 589 1619 0 548 591 590 0 +-.02262778854688855 -3469446951953615e-33 .02
28957244023843 0 1 0 16 548 1371 0 ?595 546 593 589 0 0 18 30 591 1620 0 593 592
 589 0 +.02262778854688855 -693889390390723e-32 .0228957244023843 0 1 0 16 593 1
458 0 ?594 548 596 591 0 0 18 30 592 1621 0 596 600 591 0 +-.02 0 .0228957244023
843 0 -1 0 16 596 1374 0 ?333 593 598 592 0 0 18 30 600 1622 0 598 597 592 0 +-.
02262778854688855 -.008 .02755 0 -2312964634635745e-31 -1 16 598 1380 0 ?599 596
 601 600 0 0 18 30 597 1623 0 601 605 600 0 +.02262778854688855 -.008 .02755 0 -
2312964634635745e-31 -1 16 601 1389 0 ?341 598 602 597 0 0 18 30 605 1624 0 602
 603 597 0 +-.02 -.008 .02755 0 2312964634635745e-31 1 16 602 1386 0 ?604 601 60
7 605 0 0 18 30 603 1625 0 607 610 605 0 +-.02262778854688855 -3469446951953615e
-33 .00789572440238432 0 1 0 16 607 1407 0 ?609 602 606 603 0 0 18 30 610 1626 0
 606 608 603 0 +.02262778854688855 -693889390390723e-32 .00789572440238432 0 1 0
 16 606 1416 0 ?611 607 612 610 0 0 18 30 608 1627 0 612 614 610 0 +-.02 0 .0078
9572440238432 0 -1 0 16 612 1413 0 ?613 606 615 608 0 0 18 30 614 1628 0 615 616
 608 0 +-.02262778854688855 .008 .02755 0 -2312964634635745e-31 -1 16 615 1446 0
 ?365 612 620 614 0 0 18 30 616 1629 0 620 618 614 0 +.02262778854688855 .008 .0
2755 0 -2312964634635745e-31 -1 16 620 1473 0 ?617 615 619 616 0 0 18 30 618 163
0 0 619 622 616 0 +-.02 .008 .02755 0 2312964634635745e-31 1 16 619 1449 0 ?356
 620 625 618 0 0 18 30 622 1631 0 624 621 618 0 +-.0325 -.008 .0228957244023843
 1 0 0 16 624 1455 0 ?623 625 626 622 625 625 18 30 621 1632 0 630 627 622 0 +-.
0325 -.008 .00789572440238432 1 0 0 16 630 1464 0 ?628 626 629 621 626 626 18 30
 627 1633 0 631 635 621 0 +-.0325 .008 .00789572440238432 1 0 0 16 631 1467 0 ?2
15 629 633 627 629 629 18 30 635 1634 0 632 634 627 0 +-.0325 .008 .022895724402
3843 1 0 0 16 632 1470 0 ?639 633 640 635 633 633 18 30 634 2150 0 640 637 635 0
 +0 -.01 .0248957244023843 -1 0 0 16 640 1905 0 ?638 632 636 634 0 0 18 30 637 2
151 0 636 643 634 0 +0 .01 .0248957244023843 -1 1734723475976805e-31 0 16 636 18
90 0 ?371 640 645 637 0 0 18 30 643 2152 0 645 641 637 0 +693889390390723e-32 -.
01258349539420852 .0248957244023843 1 0 0 16 645 1911 0 ?644 636 642 643 0 0 18
 30 641 2153 0 642 646 643 0 +-.0185 -.01 .02755 365204942310907e-30 0 1 16 642
 1917 0 ?366 645 650 641 0 0 18 30 646 2154 0 650 648 641 0 +-.0185 .01 .02755 3
65204942310907e-30 -633529586969486e-46 1 16 650 1923 0 ?647 642 649 646 0 0 18
 30 648 2155 0 649 651 646 0 +-.0185 -.01258349539420852 .02755 -365204942310907
e-30 0 -1 16 649 1929 0 ?380 650 655 648 0 0 18 30 651 2156 0 655 653 648 0 +0 -
.01 .00589572440238432 -1 0 0 16 655 1941 0 ?379 649 409 651 0 0 18 30 653 2157
 0 409 652 651 0 +0 .01 .00589572440238432 -1 1734723475976805e-31 0 16 409 1947
 0 ?408 655 654 653 0 0 18 30 652 2158 0 654 656 653 0 +693889390390723e-32 -.01
258349539420852 .00589572440238432 1 0 0 16 654 1953 0 ?660 409 657 652 0 0 18 3
0 656 2159 0 657 658 652 0 +.0185 -.01 .02755 365204942310907e-30 0 1 16 657 197
7 0 ?659 654 662 656 0 0 18 30 658 2160 0 662 665 656 0 +.0185 .01 .02755 365204
942310907e-30 -633529586969486e-46 1 16 662 1962 0 ?199 657 664 658 0 0 18 30 66
5 2161 0 664 661 658 0 +.0185 -.01258349539420852 .02755 -365204942310907e-30 0
 -1 16 664 1983 0 ?663 662 666 665 0 0 18 30 661 2162 0 667 669 665 0 +-.0185 .0
225 .0248957244023843 0 -1 0 16 667 1908 0 ?668 666 670 661 666 666 18 30 669 21
63 0 415 412 661 0 +-.0185 .0225 .00589572440238432 0 -1 0 16 415 1935 0 ?671 67
0 198 669 670 670 18 30 412 2164 0 413 675 669 0 +.0185 .0225 .00589572440238432
 0 -1 0 16 413 1959 0 ?203 198 398 412 198 198 18 30 675 2165 0 191 0 412 0 +.01
85 .0225 .0248957244023843 0 -1 0 16 191 1980 0 ?189 398 0 675 398 398 18 17 189
 0 673 361 195 390 183 191 0 644 +16 398 2004 0 ?400 413 191 675 191 191 18 17 4
00 0 672 371 184 386 206 398 0 674 +15 672 2061 0 371 677 0 17 371 0 672 680 400
 369 674 636 0 679 +17 184 0 672 400 680 205 399 66 0 393 +17 674 0 676 411 647
 386 371 636 0 0 -15 676 1836 0 674 678 0 17 411 0 676 408 674 186 199 662 0 0 -
17 647 0 676 674 408 369 382 650 0 0 +17 408 0 676 647 411 381 196 409 0 0 +17 3
82 0 681 407 679 381 647 650 0 410 -15 681 2077 0 407 685 0 17 407 0 681 372 382
 383 410 670 0 414 -17 679 0 681 382 372 369 680 666 0 647 +17 410 0 403 196 387
 381 407 670 0 408 +16 670 1995 0 ?410 667 415 669 415 415 18 17 372 0 681 679 4
07 375 414 181 0 680 -17 680 0 672 184 371 375 679 666 0 399 -16 666 1986 0 ?679
 664 667 661 667 667 18 17 399 0 397 414 393 375 184 66 0 0 -14 685 2074 0 ?677
 406 681 61 682 -683 683 677 406 185 14 677 2058 0 ?684 685 672 61 686 +684 684
 684 685 185 14 406 2090 0 ?685 396 403 61 690 -688 688 685 396 185 50 682 2145
 0 685 690 686 0 +-.0185 .0225 .0153957244023843 -1 0 365204942310907e-30 365204
942310907e-30 0 1 14 683 2122 0 ?688 684 687 61 682 -685 685 688 684 185 13 185
 197 0 0 0 0 0 0 65 176 14 176 452 0 ?678 0 689 61 694 +0 0 678 0 185 14 678 446
 0 ?695 176 692 61 693 -0 0 695 176 185 15 689 451 0 691 176 698 50 694 469 0 17
6 700 696 0 +0 -.01 .02755 0 1 0 0 0 1 50 700 468 0 699 697 694 0 +-.02 0 .02755
 -1 0 0 0 0 1 50 696 470 0 695 694 701 0 +693889390390723e-32 -.0125834953942085
2 .02755 0 -1 0 0 0 -1 14 695 454 0 ?419 678 705 61 696 +0 0 419 678 185 50 701
 471 0 703 696 702 0 +.0213138942734443 -.01129174769710426 .02755 .701071425564
473 -.713091057479336 0 .713091057479336 .701071425564473 0 14 703 456 0 ?704 17
8 706 61 701 +0 0 704 178 185 50 702 472 0 704 701 177 0 +.0213138942734443 .011
29174769710426 .02755 -.701071425564473 -.713091057479336 0 .713091057479336 -.7
01071425564473 0 14 704 458 0 ?710 703 708 61 702 -0 0 710 703 185 50 177 473 0
 710 702 62 0 +-.0213138942734443 .01129174769710426 .02755 .701071425564471 -.7
13091057479338 0 .713091057479338 .701071425564471 0 14 710 460 0 ?707 704 709 6
1 177 -0 0 707 704 185 14 707 1 0 ?711 710 715 61 712 +0 0 711 710 185 15 709 45
9 0 499 710 0 17 499 0 709 305 448 244 713 497 0 714 +17 305 0 709 717 499 299 2
50 452 0 720 -17 448 0 709 499 719 248 716 447 0 713 +17 713 0 718 721 714 248 4
99 497 0 0 -17 714 0 718 713 722 244 481 479 0 0 -15 718 304 0 714 711 724 17 72
2 0 718 714 489 257 501 496 0 481 -17 481 0 723 222 250 257 714 479 0 0 +15 723
 657 0 720 725 726 17 222 0 723 720 481 218 265 438 0 440 -17 250 0 723 481 720
 244 305 452 0 499 +17 720 0 723 250 222 299 429 428 0 453 -16 452 631 0 ?250 45
1 504 449 451 451 18 17 429 0 730 309 728 218 720 428 0 727 +17 453 0 729 306 73
2 299 717 451 0 728 +15 729 1033 0 732 735 0 17 306 0 729 734 453 307 728 541 0
 731 +17 732 0 729 453 734 274 320 551 0 0 -17 717 0 709 719 305 274 453 451 0 7
32 -17 728 0 730 429 731 299 306 541 0 0 -15 730 1025 0 728 733 0 17 731 0 730 7
28 309 307 539 538 0 528 -17 309 0 730 731 429 302 727 532 0 531 +17 539 0 736 7
40 528 302 731 538 0 0 +17 528 0 736 539 737 307 734 530 0 0 +15 736 1045 0 539
 738 0 17 737 0 736 528 740 310 554 552 0 734 -17 734 0 729 732 306 310 528 530
 0 0 -17 740 0 736 737 539 315 531 533 0 0 -17 554 0 715 739 320 315 737 552 0 7
40 +15 715 1205 0 741 707 745 17 739 0 715 287 554 228 314 534 0 0 -17 320 0 715
 554 280 310 732 551 0 737 +17 280 0 715 320 278 274 719 522 0 717 +17 278 0 715
 280 271 279 743 506 0 716 +17 719 0 709 448 717 279 280 522 0 0 -17 271 0 715 2
78 742 267 744 525 0 749 +17 743 0 750 465 716 267 278 506 0 0 -17 716 0 750 743
 249 279 448 447 0 719 -15 750 443 0 249 419 397 17 249 0 750 716 465 248 721 47
3 0 448 +17 465 0 750 249 743 237 749 450 0 721 +17 721 0 718 747 713 237 249 47
3 0 0 -17 747 0 718 467 721 236 239 493 0 748 -17 467 0 718 492 747 226 748 470
 0 0 +17 239 0 708 749 241 237 747 493 0 465 +17 748 0 746 753 229 236 467 470 0
 0 -15 746 439 0 753 755 751 17 753 0 746 433 748 225 241 458 0 459 -17 229 0 74
6 748 433 226 754 456 0 752 +17 433 0 746 229 753 291 756 431 0 754 +17 754 0 70
6 760 752 291 229 456 0 0 -16 456 641 0 ?229 464 457 463 464 464 18 17 752 0 706
 754 235 226 492 491 0 467 -15 706 455 0 752 703 0 17 235 0 706 752 521 230 264
 445 0 758 +17 492 0 718 489 467 230 752 491 0 0 +17 489 0 718 722 492 260 758 4
88 0 0 +17 758 0 705 264 259 230 489 488 0 492 -15 705 453 0 758 695 757 17 264
 0 705 517 758 223 235 445 0 759 -17 259 0 705 758 517 260 761 439 0 501 +17 517
 0 705 259 264 290 759 516 0 0 +17 761 0 765 292 501 290 259 439 0 517 -17 501 0
 765 761 265 260 722 496 0 489 +15 765 461 0 501 178 0 17 265 0 765 501 440 257
 222 438 0 722 +17 440 0 765 265 292 218 763 434 0 429 +16 438 652 0 ?265 434 43
9 435 434 434 18 17 292 0 765 440 761 228 287 469 0 763 -17 763 0 762 314 727 22
8 440 434 0 739 -15 762 1029 0 763 764 0 17 314 0 762 531 763 315 739 534 0 554
 +17 727 0 762 763 531 218 309 532 0 0 -17 531 0 762 727 314 302 740 533 0 539 +
14 764 1056 0 ?735 733 762 61 766 +0 0 735 733 185 14 735 1038 0 ?738 764 729 61
 770 -0 0 738 764 185 14 733 1064 0 ?764 711 767 61 768 -0 0 764 711 185 50 766
 1077 0 764 768 769 0 +-.024 -.01 .02755 0 -1 0 0 0 -1 50 768 1078 0 733 772 766
 0 +-3469446951953615e-33 3469446951953615e-33 .02355 0 0 1 1 0 0 50 769 1076 0
 738 766 770 0 +-.028 520417042793042e-32 .02755 1 -3469446951953615e-31 0 34694
46951953615e-31 1 0 14 738 1042 0 ?775 735 736 61 769 -0 0 775 735 185 50 770 10
75 0 735 769 774 0 +-.024 .01 .02755 0 -1 0 0 0 -1 51 255 774 1073 0 775 770 771
 0 --.02545224130153655 .00625831494107842 .02755 0 0 -1 .00225 -1 0 0 14 775 10
46 0 ?773 738 776 61 774 +0 0 773 738 185 51 771 1072 0 773 774 712 0 +-.0254522
4130153655 -.00625831494107843 .02755 0 0 -1 .00225 -1 0 0 14 773 1051 0 ?777 77
5 779 61 771 -0 0 777 775 185 50 712 3 0 707 771 778 0 +3469446951953615e-33 -34
69446951953615e-33 .02755 0 0 1 1 0 0 50 778 402 0 711 712 780 0 +34694469519536
15e-33 -3469446951953615e-33 0 0 0 1 1 0 0 14 711 282 0 ?733 707 718 61 778 -0 0
 733 707 185 50 780 463 0 755 778 781 0 +.02262778854688855 -693889390390723e-32
 .02755 1 0 0 0 0 -1 14 755 440 0 ?699 725 746 61 780 +0 0 699 725 185 50 781 46
4 0 785 780 783 0 +.02 -3469446951953615e-33 .02755 -1 3469446951953615e-31 0 -3
469446951953615e-31 -1 0 14 785 442 0 ?178 699 782 61 781 +0 0 178 699 185 50 78
3 465 0 419 781 693 0 +1040834085586084e-32 .01258349539420852 .02755 -173472347
5976805e-31 -1 0 1 -1734723475976805e-31 0 14 419 444 0 ?725 695 750 61 783 -0 0
 725 695 185 50 693 466 0 678 783 697 0 +0 .01 .02755 1734723475976805e-31 1 0 -
1 1734723475976805e-31 0 50 697 467 0 725 693 700 0 +-.02262778854688855 -346944
6951953615e-33 .02755 1 0 0 0 0 -1 14 725 448 0 ?755 419 723 61 697 -0 0 755 419
 185 14 178 462 0 ?703 785 765 61 62 -0 0 703 785 185 14 699 450 0 ?785 755 784
 61 700 -0 0 785 755 185 15 782 699 0 787 785 790 17 787 0 782 268 243 233 472 4
74 0 0 -15 790 1255 0 430 785 0 17 430 0 790 416 789 216 357 422 0 0 +17 416 0 7
90 786 430 329 788 404 0 0 +17 789 0 790 430 786 360 342 421 0 0 -17 357 0 791 2
15 217 360 430 422 0 795 -15 791 1602 0 217 792 0 17 215 0 791 352 357 209 795 6
31 0 611 +17 217 0 791 357 352 216 639 632 0 788 -17 795 0 793 342 611 360 215 6
31 0 789 -15 793 1598 0 611 794 0 17 342 0 793 628 795 345 789 421 0 796 +17 611
 0 793 795 628 209 800 606 0 617 +17 628 0 793 611 342 338 796 630 0 800 +17 800
 0 751 798 617 338 611 606 0 0 -17 617 0 751 800 594 209 352 620 0 0 +15 751 129
3 0 798 755 0 17 594 0 751 617 798 351 328 593 0 0 +17 352 0 791 217 215 351 617
 620 0 639 -17 639 0 797 328 788 351 217 632 0 594 +15 797 1590 0 799 804 0 17 3
28 0 797 799 639 313 594 593 0 623 -17 788 0 797 639 799 216 416 404 0 430 -17 7
99 0 797 788 328 329 623 624 0 416 -17 623 0 805 341 335 313 799 624 0 798 +15 8
05 1594 0 341 802 0 17 341 0 805 796 623 338 798 601 0 628 +17 335 0 805 623 796
 329 786 423 0 799 +17 798 0 751 594 800 313 341 601 0 0 -17 796 0 805 335 341 3
45 628 630 0 786 -17 786 0 790 789 416 345 335 423 0 0 -14 802 1591 0 ?804 794 8
05 61 803 -801 801 804 794 185 14 804 1587 0 ?808 802 797 61 810 +808 808 808 80
2 185 14 794 1595 0 ?802 792 793 61 806 -809 809 802 792 185 50 803 1614 0 802 8
06 810 0 +-.0325 -.008 .0153957244023843 0 -1 2312964634635745e-31 0 -2312964634
635745e-31 -1 14 801 1539 0 ?809 808 807 61 803 -802 802 809 808 185 14 809 1555
 0 ?811 801 815 61 806 -794 794 811 801 185 14 808 1523 0 ?801 804 813 61 810 +8
04 804 801 804 185 15 807 1542 0 812 801 0 17 812 0 807 350 339 334 814 625 0 60
4 +17 350 0 807 816 812 344 604 602 0 820 -17 339 0 807 812 816 336 599 598 0 81
4 -17 814 0 813 595 333 336 812 625 0 818 -16 625 1368 0 ?812 619 624 622 624 62
4 18 17 604 0 817 819 613 334 350 602 0 0 +15 817 1288 0 819 699 0 17 819 0 817
 821 604 353 333 596 0 0 -17 613 0 817 604 821 344 825 612 0 0 +17 821 0 817 613
 819 213 356 619 0 0 -17 825 0 815 822 820 213 613 612 0 821 -15 815 1558 0 820
 809 0 17 822 0 815 348 825 359 214 629 0 609 -17 820 0 815 825 348 344 816 626
 0 613 +17 348 0 815 820 822 349 609 607 0 816 -17 816 0 807 339 350 349 820 626
 0 599 -16 626 1398 0 ?820 624 630 621 630 630 18 17 599 0 726 609 818 349 339 5
98 0 0 +15 726 1322 0 818 725 0 17 609 0 726 823 599 359 348 607 0 0 +17 818 0 7
26 599 823 336 595 548 0 0 -17 823 0 726 818 609 210 365 615 0 0 -17 595 0 813 8
24 814 210 818 548 0 823 +15 813 1526 0 595 808 0 17 824 0 813 333 595 353 207 6
33 0 819 +17 333 0 813 814 824 334 819 596 0 812 +17 207 0 827 365 356 210 824 6
33 0 595 -16 633 1443 0 ?824 631 632 635 632 632 18 15 827 1574 0 365 811 0 17 3
65 0 827 214 207 359 823 615 0 822 +17 356 0 827 207 214 353 821 619 0 824 +17 2
14 0 827 356 365 213 822 629 0 825 +16 629 1425 0 ?214 630 631 627 631 631 18 14
 811 1571 0 ?396 809 827 61 830 +792 792 396 809 185 14 396 2106 0 ?406 811 194
 61 829 +826 826 406 811 185 50 830 1616 0 792 686 806 0 +-.0325 .008 .015395724
4023843 0 -1 2312964634635745e-31 0 -2312964634635745e-31 -1 14 792 1599 0 ?794
 828 791 61 830 +811 811 794 828 185 14 828 903 0 ?792 831 832 61 834 -0 0 792 8
31 185 14 831 893 0 ?828 833 835 61 836 +0 0 828 833 185 15 832 906 0 756 828 84
0 50 834 1086 0 828 810 836 0 +-3469446951953615e-33 3469446951953615e-33 .02355
 0 0 1 1 0 0 50 810 1613 0 804 803 834 0 +-.0325 1734723475976805e-33 .022895724
4023843 0 0 -1 -1 0 0 50 836 1085 0 831 834 838 0 +.028 0 .02755 1 0 0 0 0 -1 50
 838 1084 0 837 836 839 0 +.024 -.01 .02755 0 1 0 0 0 1 14 837 879 0 ?842 777 84
5 61 838 -0 0 842 777 185 50 839 1082 0 777 838 844 0 +.024 .01 .02755 0 1 0 0 0
 1 14 777 871 0 ?837 773 841 61 839 +0 0 837 773 185 51 844 1081 0 842 839 772 0
 +.02545224130153655 .00625831494107842 .02755 0 0 -1 .00225 -1 0 0 14 842 883 0
 ?833 837 843 61 844 -0 0 833 837 185 51 772 1080 0 833 844 768 0 -.025452241301
53655 -.00625831494107844 .02755 0 0 -1 .00225 -1 0 0 14 833 888 0 ?831 842 846
 61 772 +0 0 831 842 185 15 846 891 0 587 833 850 17 587 0 846 587 587 0 847 568
 0 0 +15 850 892 0 848 833 0 17 848 0 850 848 848 0 577 526 0 0 -17 577 0 840 57
7 577 0 848 526 0 0 +15 840 907 0 577 828 849 15 849 908 0 851 828 0 17 851 0 84
9 851 851 0 580 574 0 0 -17 580 0 855 580 580 0 851 574 0 0 +15 855 887 0 580 84
2 0 17 847 0 853 847 847 0 587 568 0 0 -15 853 900 0 847 707 852 15 852 901 0 58
6 707 0 17 586 0 852 586 586 0 854 588 0 0 +17 854 0 843 854 854 0 586 588 0 0 -
15 843 886 0 854 842 855 15 841 870 0 298 777 0 17 298 0 841 324 221 300 459 457
 0 742 -17 324 0 841 564 298 303 742 583 0 859 +17 221 0 841 298 564 225 319 572
 0 756 -17 459 0 708 241 744 225 298 457 0 0 +17 742 0 715 271 860 300 324 583 0
 744 -17 860 0 715 742 330 303 584 567 0 0 -17 744 0 708 459 749 300 271 525 0 0
 -15 708 457 0 239 704 0 17 749 0 708 744 239 267 465 450 0 743 -17 330 0 715 86
0 741 321 294 585 0 857 +17 584 0 835 565 859 321 860 567 0 0 +15 835 896 0 858
 831 0 17 565 0 835 858 584 312 857 502 0 566 +17 859 0 835 584 858 303 564 563
 0 860 -17 858 0 835 859 565 318 566 570 0 0 -17 564 0 841 221 324 318 859 563 0
 858 +17 566 0 832 856 319 312 858 570 0 0 +17 856 0 832 756 566 291 323 571 0 4
33 -17 319 0 832 566 756 318 221 572 0 564 +17 756 0 832 319 856 225 433 431 0 7
53 -17 323 0 845 857 296 312 856 571 0 565 +15 845 882 0 296 837 0 17 857 0 845
 294 323 321 565 502 0 584 -17 296 0 845 323 294 291 760 464 0 856 +17 294 0 845
 296 857 263 330 585 0 760 -17 760 0 706 521 754 263 296 464 0 741 -17 521 0 706
 235 760 223 741 518 0 0 +17 741 0 715 330 759 263 521 518 0 0 -17 759 0 715 741
 287 223 517 516 0 521 -17 287 0 715 759 739 290 292 469 0 761 +17 241 0 708 239
 459 236 753 458 0 747 +16 458 636 0 ?241 457 450 454 457 457 18 50 686 2144 0 6
77 682 830 0 +0 .0225 .0248957244023843 0 0 -1 -1 0 0 50 806 1615 0 794 830 803
 0 +-.0325 -1734723475976805e-33 .00789572440238432 0 0 -1 -1 0 0 50 829 2147 0
 396 0 690 0 +.0185 .0225 .0153957244023843 -1 0 365204942310907e-30 36520494231
0907e-30 0 1 14 826 2130 0 ?0 688 190 61 829 +396 396 0 688 185 14 688 2126 0 ?8
26 683 863 61 690 -406 406 826 683 185 15 190 2117 0 203 826 0 17 203 0 190 188
 187 192 865 413 0 660 +17 188 0 190 183 203 390 663 664 0 189 -17 187 0 190 203
 183 391 659 657 0 865 -17 865 0 863 379 660 391 203 413 0 861 -17 660 0 863 865
 671 192 864 654 0 663 +15 863 2101 0 379 688 0 17 671 0 863 660 379 374 862 415
 0 864 +17 864 0 757 866 663 374 660 654 0 0 -17 663 0 757 864 644 192 188 664 0
 0 +15 757 1807 0 866 695 0 17 644 0 757 663 866 390 361 645 0 0 +17 866 0 757 6
44 864 362 380 649 0 0 -17 361 0 673 870 189 362 644 645 0 668 -15 673 2069 0 18
9 684 0 17 870 0 673 195 361 368 668 667 0 638 -17 668 0 687 380 366 362 870 667
 0 866 +15 687 2085 0 366 683 0 17 380 0 687 862 668 374 866 649 0 671 +17 366 0
 687 668 862 368 868 642 0 870 +17 862 0 687 366 380 378 671 415 0 868 -17 868 0
 698 861 638 378 366 642 0 0 -15 698 1841 0 659 176 0 17 861 0 698 659 868 391 3
79 655 0 0 -17 638 0 698 868 659 368 195 640 0 0 +17 659 0 698 638 861 70 187 65
7 0 0 +17 195 0 673 189 870 70 638 640 0 659 -17 379 0 863 671 865 378 861 655 0
 862 +14 684 2118 0 ?683 677 673 61 686 +677 677 683 677 185 50 690 2146 0 406 8
29 682 0 +-3469446951953615e-33 .0225 .00589572440238432 0 0 -1 -1 0 0 17 268 0
 782 505 787 266 234 437 0 513 -17 243 0 782 787 505 245 867 446 0 476 +17 472 0
 724 869 490 245 787 474 0 0 +15 724 305 0 490 711 0 17 869 0 724 871 472 254 47
6 478 0 482 -17 490 0 724 472 871 233 691 484 0 787 +17 871 0 724 490 869 253 48
2 485 0 691 -17 691 0 689 286 234 253 490 484 0 0 -17 286 0 689 513 691 283 258
 432 0 875 -17 234 0 689 691 513 233 268 437 0 490 +17 513 0 689 234 286 266 873
 514 0 872 +17 873 0 745 515 872 283 513 514 0 0 -17 872 0 745 873 273 266 505 5
04 0 0 -15 745 689 0 273 707 874 17 273 0 745 872 515 275 284 508 0 867 +17 505
 0 782 243 268 275 872 504 0 0 +17 515 0 745 273 873 281 875 509 0 876 +17 284 0
 692 252 867 281 273 508 0 515 -17 867 0 692 284 476 275 243 446 0 505 -15 692 4
45 0 476 678 676 17 476 0 692 867 252 245 869 478 0 472 +17 252 0 692 476 284 25
4 876 441 0 869 +17 876 0 784 875 482 281 252 441 0 0 -15 784 449 0 482 699 817
 17 875 0 784 258 876 283 515 509 0 873 -17 482 0 784 876 258 254 871 485 0 0 +1
7 258 0 784 482 875 253 286 432 0 871 +15 874 1017 0 880 707 877 17 880 0 874 88
0 880 0 559 556 0 0 -15 877 1018 0 560 707 853 17 560 0 877 560 560 0 878 540 0
 0 +17 878 0 779 878 878 0 560 540 0 0 -15 779 1054 0 878 773 879 15 879 1055 0
 547 773 0 17 547 0 879 547 547 0 882 546 0 0 +17 882 0 767 882 882 0 547 546 0
 0 -15 767 1023 0 882 733 885 15 885 1024 0 544 733 730 17 544 0 885 544 544 0 8
84 543 0 0 +17 884 0 881 884 884 0 544 543 0 0 -15 881 1050 0 884 775 0 17 559 0
 776 559 559 0 880 556 0 0 +15 776 1049 0 559 775 881 17 199 0 194 206 193 386 4
11 662 0 400 +19 180 488 0 18 0 65 61 0 S0 74 20 175 3 0 0 883 174 56 0 0 0 0 0
 0 0 0 0 0 0 0 0 0 0 0 0 81 1 883 2312 165 18 0 174 0 0 886 81 1 174 2313 163 18
 883 56 0 0 887 98 6 887 80 97 114 116 32 51 83 3 886 .231372549019608 .38039215
6862745 .705882352941177 84 6 173 Part 384 17 59 Myp8Z+zUCmKJT8DXj81 1 46 181 5
 32 889 0 0 0 888 70 50 0 4 T32 0 0 3 20 1 890 890 13 48 137 0 32 0 891 0 0 895
 0 50 47 132 0 891 893 0 0 +-.02 -693889390390723e-32 .005 1 0 0 0 0 -1 30 49 13
6 0 52 892 0 0 +-.02 .018 .005 0 0 -1 29 51 113 0 894 897 0 -.02 -.018 0 19 55 4
8 0 32 895 0 900 0 V0 16 52 120 0 ?899 0 896 49 0 0 32 18 53 42 0 898 0 901 905
 ?32 17 898 0 902 903 904 53 906 910 0 908 -18 901 37 0 907 53 909 914 ?32 29 90
5 44 0 53 914 915 -.02 -.018 .005 29 914 39 0 901 912 905 -.028 -.018 .005 29 91
5 116 0 913 905 911 -.02 .018 0 18 913 104 0 899 918 0 915 ?32 29 911 115 0 918
 915 897 -.028 .018 0 18 918 100 0 920 916 913 911 ?32 29 897 114 0 916 911 51 -
.028 -.018 0 18 916 96 0 919 894 918 897 ?32 17 919 0 902 904 903 916 917 921 0
 925 +18 894 92 0 906 923 916 51 ?32 17 906 0 922 924 908 894 898 910 0 926 +18
 923 27 0 930 909 894 928 ?32 17 930 0 922 908 924 923 899 52 0 927 -18 909 32 0
 929 901 923 912 ?32 29 928 29 0 923 0 912 -.02 .018 .005 29 912 34 0 909 928 91
4 -.028 .018 .005 17 929 0 931 907 935 909 927 932 0 933 +15 931 6 0 935 934 0 1
7 907 0 931 937 929 901 940 939 0 917 +17 935 0 931 929 937 923 908 936 0 0 -17
 927 0 938 899 933 923 929 932 0 935 -16 932 12 0 ?929 939 936 941 0 0 32 17 933
 0 938 927 920 909 942 896 0 940 -15 938 125 0 920 944 0 17 920 0 938 933 899 91
8 943 945 0 942 +17 942 0 946 925 940 918 933 896 0 950 +16 896 119 0 ?942 52 92
1 892 0 0 32 17 940 0 946 942 917 909 907 939 0 0 -15 946 123 0 925 948 0 17 917
 0 946 940 925 901 919 921 0 903 -16 939 17 0 ?907 947 932 949 0 0 32 16 947 22
 0 ?903 910 939 952 0 0 32 30 949 19 0 939 941 952 0 +-.028 -693889390390723e-32
 .005 385494105772624e-30 -1 0 30 941 14 0 932 955 949 0 +-.024 .018 .005 -1 0 0
 30 952 24 0 947 949 954 0 +-.024 -.018 .005 -1 0 0 30 954 112 0 951 952 953 0 +
-.02 -693889390390723e-32 0 0 -1 0 16 951 88 0 ?926 945 0 954 0 0 32 30 953 111
 0 945 954 956 0 +-.024 .018 0 -1 0 0 16 945 84 0 ?920 960 951 953 0 0 32 30 956
 110 0 960 953 957 0 +-.028 -693889390390723e-32 0 385494105772624e-30 -1 0 16 9
60 80 0 ?925 958 945 956 0 0 32 30 957 109 0 958 956 959 0 +-.024 -.018 0 -1 0 0
 16 958 76 0 ?961 936 960 957 0 0 32 30 959 133 0 910 957 965 0 +-.02 -.018 .005
 0 0 -1 16 910 117 0 ?906 921 947 959 0 0 32 30 965 134 0 921 959 892 0 +-.028 -
.018 .005 0 0 -1 16 921 118 0 ?919 896 910 965 0 0 32 30 892 135 0 896 965 49 0
 +-.028 .018 .005 0 0 -1 17 961 0 963 950 926 916 904 958 0 0 +16 936 7 0 ?908 9
32 958 955 0 0 32 17 908 0 922 906 930 53 935 936 0 937 +30 955 9 0 936 0 941 0
 +-.02 -693889390390723e-32 .005 0 -1 0 15 922 127 0 924 891 0 17 937 0 931 935
 907 53 903 947 0 0 -17 903 0 902 919 898 901 937 947 0 0 +15 902 121 0 904 962
 0 17 904 0 902 898 919 894 961 958 0 0 -14 962 122 0 ?934 948 902 48 964 +0 0 9
34 948 900 14 934 1 0 ?969 962 931 48 970 +0 0 969 962 900 14 948 124 0 ?962 944
 946 48 967 -0 0 962 944 900 50 964 129 0 962 968 967 0 +-.024 -.018 .005 0 -1 0
 0 0 -1 13 900 49 0 0 0 0 0 0 55 891 14 891 128 0 ?944 0 922 48 47 +0 0 944 0 90
0 14 944 126 0 ?948 891 938 48 893 -0 0 948 891 900 50 893 131 0 944 967 47 0 +-
.024 .018 .005 0 -1 0 0 0 -1 50 967 130 0 948 964 893 0 +-.028 -693889390390723e
-32 .005 1 385494105772624e-30 0 -385494105772624e-30 1 0 50 968 108 0 969 970 9
64 0 +3469446951953615e-33 -1040834085586084e-32 0 0 0 1 1 0 0 14 969 68 0 ?0 93
4 963 48 968 -0 0 0 934 900 50 970 3 0 934 0 968 0 +3469446951953615e-33 -104083
4085586084e-32 .005 0 0 1 1 0 0 15 963 75 0 926 969 0 17 926 0 963 961 943 894 9
24 951 0 904 +17 943 0 963 926 950 913 920 945 0 924 -17 924 0 922 930 906 913 9
26 951 0 0 -17 950 0 963 943 961 918 925 960 0 0 -17 925 0 946 917 942 916 950 9
60 0 961 +17 899 0 938 920 927 913 930 52 0 943 +19 895 138 0 32 0 55 48 0 S0 74
 20 890 3 0 0 966 889 46 0 0 0 0 0 0 0 0 0 0 0 0 0 0 0 0 0 81 1 966 179 165 32 0
 889 0 0 973 81 1 889 180 163 32 966 46 0 0 975 98 6 975 80 97 114 116 32 52 83
 3 973 .917647058823529 .917647058823529 .917647058823529 84 6 888 Part 484 17 4
4 MqIKtxwUiCYSfLOGN81 1 34 237 5 27 971 0 0 0 974 70 35 0 4 T27 0 0 3 20 1 972 9
72 13 31 183 0 27 0 976 0 0 980 0 50 38 178 0 976 978 0 0 +3469446951953615e-33
 .01 .005 -1734723475976805e-31 -1 0 1 -1734723475976805e-31 0 30 40 182 0 37 97
7 0 0 +.02 .01 .005 0 0 -1 29 36 149 0 979 981 0 -.02 .01 0 19 39 60 0 27 980 0
 985 0 V0 16 37 156 0 ?983 0 982 40 0 0 27 18 41 54 0 984 0 986 990 ?27 17 984 0
 987 988 989 41 992 995 0 994 -18 986 49 0 991 41 993 996 ?27 29 990 56 0 41 996
 997 -.02 .01 .005 29 996 51 0 986 999 990 -.02 .018 .005 29 997 152 0 998 990 1
000 .02 .01 0 18 998 138 0 983 1001 0 997 ?27 29 1000 151 0 1001 997 981 .02 .01
8 0 18 1001 134 0 1005 1003 998 1000 ?27 29 981 150 0 1003 1000 36 -.02 .018 0 1
8 1003 130 0 1002 979 1001 981 ?27 17 1002 0 987 989 988 1003 1004 1007 0 1010 +
18 979 126 0 992 1009 1003 36 ?27 17 992 0 1006 1008 994 979 984 995 0 1011 +18
 1009 39 0 1015 993 979 1012 ?27 17 1015 0 1006 994 1008 1009 983 37 0 1013 -18
 993 44 0 1014 986 1009 999 ?27 29 1012 41 0 1009 0 999 .02 .01 .005 29 999 46 0
 993 1012 996 .02 .018 .005 17 1014 0 1016 991 1020 993 1013 1018 0 1017 +15 101
6 6 0 1020 1019 1024 17 991 0 1016 1025 1014 986 1022 1023 0 1004 +17 1020 0 101
6 1014 1025 1009 994 1021 0 0 -17 1013 0 1028 983 1017 1009 1014 1018 0 1020 -16
 1018 14 0 ?1014 1023 1021 1030 0 0 27 17 1017 0 1028 1013 1005 993 1026 982 0 1
022 -15 1028 169 0 1005 1029 0 17 1005 0 1028 1017 983 1001 1027 1031 0 1026 +17
 1026 0 1035 1010 1022 1001 1017 982 0 1033 +16 982 155 0 ?1026 37 1007 977 0 0
 27 17 1022 0 1035 1026 1004 993 991 1023 0 0 -15 1035 167 0 1010 1032 0 17 1004
 0 1035 1022 1010 986 1002 1007 0 988 -16 1023 19 0 ?991 1034 1018 1036 0 0 27 1
6 1034 24 0 ?988 1040 1023 1038 0 0 27 30 1036 21 0 1023 1030 1038 0 +3469446951
953615e-33 .018 .005 -1 3469446951953615e-31 0 30 1030 16 0 1018 1037 1036 0 +.0
2 .014 .005 0 1 0 30 1038 26 0 1034 1036 1039 0 +-.02 .014 .005 867361737988404e
-30 1 0 31 1039 31 0 1040 1038 1041 0 +-.0119693037122488 .01430618576705456 .00
5 0 0 1 1 0 0 .0016 16 1040 29 0 ?1045 1042 1034 1039 0 0 27 31 1041 36 0 1042 1
039 1043 0 +.0104672135785222 .01430618576705456 .005 0 0 1 1 0 0 .0016 16 1042
 34 0 ?1044 995 1040 1041 0 0 27 30 1043 148 0 1047 1041 1050 0 +346944695195361
5e-33 .01 0 -1 1734723475976805e-31 0 16 1047 122 0 ?1011 1031 0 1043 0 0 27 30
 1050 147 0 1031 1043 1049 0 +.02 .014 0 0 1 0 16 1031 118 0 ?1005 1046 1047 105
0 0 0 27 30 1049 146 0 1046 1050 1048 0 +3469446951953615e-33 .018 0 -1 34694469
51953615e-31 0 16 1046 114 0 ?1010 1051 1031 1049 0 0 27 30 1048 145 0 1051 1049
 1052 0 +-.02 .014 0 867361737988404e-30 1 0 16 1051 110 0 ?1054 1053 1046 1048
 0 0 27 31 1052 144 0 1053 1048 1055 0 +-.0119693037122488 .01430618576705456 0
 0 0 1 1 0 0 .0016 16 1053 106 0 ?1056 1060 1051 1052 0 0 27 31 1055 143 0 1060
 1052 1058 0 +.0104672135785222 .01430618576705456 0 0 0 1 1 0 0 .0016 16 1060 1
02 0 ?1057 1021 1053 1055 0 0 27 30 1058 179 0 995 1055 1059 0 +-.02 .01 .005 0
 0 -1 16 995 153 0 ?992 1007 1042 1058 0 0 27 30 1059 180 0 1007 1058 977 0 +-.0
2 .018 .005 0 0 -1 16 1007 154 0 ?1002 982 995 1059 0 0 27 30 977 181 0 982 1059
 40 0 +.02 .018 .005 0 0 -1 17 1057 0 1062 1057 1057 0 1065 1060 0 0 +16 1021 9
 0 ?994 1018 1060 1037 0 0 27 17 994 0 1006 992 1015 41 1020 1021 0 1025 +30 103
7 11 0 1021 0 1030 0 +3469446951953615e-33 .01 .005 -1 1734723475976805e-31 0 15
 1006 171 0 1008 976 0 17 1025 0 1016 1020 991 41 988 1034 0 0 -17 988 0 987 100
2 984 986 1025 1034 0 0 +15 987 165 0 989 1064 0 17 989 0 987 984 1002 979 1054
 1051 0 0 -14 1064 166 0 ?1061 1063 987 31 1066 +0 0 1061 1063 985 14 1061 158 0
 ?1019 1064 1070 31 1067 +0 0 1019 1064 985 14 1063 162 0 ?1064 1032 1068 31 106
9 +0 0 1064 1032 985 50 1066 175 0 1064 1069 1071 0 +-.02 .014 .005 -1 867361737
988404e-30 0 -867361737988404e-30 -1 0 13 985 61 0 0 0 0 0 0 39 976 14 976 172 0
 ?1029 0 1006 31 38 +0 0 1029 0 985 14 1029 170 0 ?1032 976 1028 31 978 -0 0 103
2 976 985 14 1032 168 0 ?1063 1029 1035 31 1071 -0 0 1063 1029 985 50 978 177 0
 1029 1071 38 0 +.02 .014 .005 -1 0 0 0 0 1 50 1071 176 0 1032 1066 978 0 +34694
46951953615e-33 .018 .005 -3469446951953615e-31 -1 0 1 -3469446951953615e-31 0 5
1 1069 174 0 1063 1067 1066 0 --.0119693037122488 .01430618576705456 .005 0 0 -1
 .0016 -1 0 0 51 1067 173 0 1061 1075 1069 0 -.0104672135785222 .014306185767054
56 .005 0 0 -1 .0016 -1 0 0 50 1075 142 0 1073 1072 1067 0 +0 -3469446951953615e
-33 0 0 0 1 1 0 0 14 1073 90 0 ?0 1019 1074 31 1075 -0 0 0 1019 985 50 1072 3 0
 1019 0 1075 0 +0 -3469446951953615e-33 .005 0 0 1 1 0 0 14 1019 1 0 ?1073 1061
 1016 31 1072 +0 0 1073 1061 985 15 1074 99 0 1011 1073 1079 17 1011 0 1074 1054
 1027 979 1008 1047 0 989 +15 1079 100 0 1056 1073 1062 17 1056 0 1079 1056 1056
 0 1080 1053 0 0 +15 1062 101 0 1057 1073 0 17 1080 0 1077 1080 1080 0 1056 1053
 0 0 -15 1077 163 0 1080 1063 0 17 1054 0 1074 1033 1011 1003 989 1051 0 0 +17 1
027 0 1074 1011 1033 998 1005 1031 0 1008 -17 1008 0 1006 1015 992 998 1011 1047
 0 0 -17 1033 0 1074 1027 1054 1001 1010 1046 0 0 -17 1010 0 1035 1004 1026 1003
 1033 1046 0 1054 +15 1068 161 0 1045 1063 1077 17 1045 0 1068 1045 1045 0 1078
 1040 0 0 +17 1078 0 1024 1078 1078 0 1045 1040 0 0 -15 1024 7 0 1078 1019 1076
 15 1076 8 0 1083 1019 0 17 1083 0 1076 1083 1083 0 1044 1042 0 0 -17 1044 0 107
0 1044 1044 0 1083 1042 0 0 +15 1070 157 0 1044 1061 1085 15 1085 159 0 1065 106
1 0 17 1065 0 1085 1065 1065 0 1057 1060 0 0 -17 983 0 1028 1005 1013 998 1015 3
7 0 1027 +19 980 184 0 27 0 39 31 0 S0 74 20 972 3 0 0 1081 971 34 0 0 0 0 0 0 0
 0 0 0 0 0 0 0 0 0 0 81 1 1081 235 165 27 0 971 0 0 1084 81 1 971 236 163 27 108
1 34 0 0 1082 98 6 1082 80 97 114 116 32 50 83 3 1084 .647058823529412 .64705882
3529412 .647058823529412 84 6 974 Part 284 17 28 MKY3fOFsr30j9ykdO81 1 16 237 5
 10 1086 0 0 0 1090 70 17 0 4 T10 0 0 3 20 1 1088 1088 13 19 183 0 10 0 1087 0 0
 1089 0 50 20 178 0 1087 1091 0 0 +.02 -.014 .005 1 0 0 0 0 -1 30 21 182 0 24 10
95 0 0 +.02 -.01 .005 0 0 -1 29 22 149 0 1093 1092 0 .02 -.018 0 19 23 60 0 10 1
089 0 1094 0 V0 16 24 156 0 ?1096 0 1100 21 0 0 10 18 25 54 0 1097 0 1098 1099 ?
10 17 1097 0 1102 1105 1104 25 1101 1103 0 1106 -18 1098 49 0 1107 25 1109 1108
 ?10 29 1099 56 0 25 1108 1110 .02 -.018 .005 29 1108 51 0 1098 1111 1099 -.02 -
.018 .005 29 1110 152 0 1115 1099 1113 .02 -.01 0 18 1115 138 0 1096 1112 0 1110
 ?10 29 1113 151 0 1112 1110 1092 -.02 -.01 0 18 1112 134 0 1114 1117 1115 1113
 ?10 29 1092 150 0 1117 1113 22 -.02 -.018 0 18 1117 130 0 1120 1093 1112 1092 ?
10 17 1120 0 1102 1104 1105 1117 1119 1116 0 1118 +18 1093 126 0 1101 1121 1117
 22 ?10 17 1101 0 1125 1122 1106 1093 1097 1103 0 1123 +18 1121 39 0 1124 1109 1
093 1126 ?10 17 1124 0 1125 1106 1122 1121 1096 24 0 1130 -18 1109 44 0 1128 109
8 1121 1111 ?10 29 1126 41 0 1121 0 1111 .02 -.01 .005 29 1111 46 0 1109 1126 11
08 -.02 -.01 .005 17 1128 0 1127 1107 1129 1109 1130 1134 0 1135 +15 1127 6 0 11
29 1132 1133 17 1107 0 1127 1131 1128 1098 1138 1140 0 1119 +17 1129 0 1127 1128
 1131 1121 1106 1136 0 0 -17 1130 0 1139 1096 1135 1121 1128 1134 0 1129 -16 113
4 14 0 ?1128 1140 1136 1137 0 0 10 17 1135 0 1139 1130 1114 1109 1141 1100 0 113
8 -15 1139 169 0 1114 1145 0 17 1114 0 1139 1135 1096 1112 1143 1142 0 1141 +17
 1141 0 1144 1118 1138 1112 1135 1100 0 1146 +16 1100 155 0 ?1141 24 1116 1095 0
 0 10 17 1138 0 1144 1141 1119 1109 1107 1140 0 0 -15 1144 167 0 1118 1150 0 17
 1119 0 1144 1138 1118 1098 1120 1116 0 1105 -16 1140 19 0 ?1107 1148 1134 1147
 0 0 10 16 1148 24 0 ?1105 1149 1140 1151 0 0 10 30 1147 21 0 1140 1137 1151 0 +
-.02 -.014 .005 0 -1 0 30 1137 16 0 1134 1155 1147 0 +3469446951953615e-33 -.01
 .005 -1 0 0 30 1151 26 0 1148 1147 1152 0 +3469446951953615e-33 -.018 .005 -1 -
1734723475976805e-31 0 31 1152 31 0 1149 1151 1153 0 +-.0119693037122488 -.01430
618576705456 .005 0 0 -1 1 0 0 .0016 16 1149 29 0 ?1154 1157 1148 1152 0 0 10 31
 1153 36 0 1157 1152 1160 0 +.0104672135785222 -.01430618576705456 .005 0 0 -1 1
 0 0 .0016 16 1157 34 0 ?1159 1103 1149 1153 0 0 10 30 1160 148 0 1156 1153 1158
 0 +.02 -.014 0 0 -1 0 16 1156 122 0 ?1123 1142 0 1160 0 0 10 30 1158 147 0 1142
 1160 1161 0 +3469446951953615e-33 -.01 0 -1 0 0 16 1142 118 0 ?1114 1162 1156 1
158 0 0 10 30 1161 146 0 1162 1158 1164 0 +-.02 -.014 0 0 -1 0 16 1162 114 0 ?11
18 1163 1142 1161 0 0 10 30 1164 145 0 1163 1161 1165 0 +3469446951953615e-33 -.
018 0 -1 -1734723475976805e-31 0 16 1163 110 0 ?1166 1170 1162 1164 0 0 10 31 11
65 144 0 1170 1164 1168 0 +-.0119693037122488 -.01430618576705456 0 0 0 -1 1 0 0
 .0016 16 1170 106 0 ?1167 1169 1163 1165 0 0 10 31 1168 143 0 1169 1165 1172 0
 +.0104672135785222 -.01430618576705456 0 0 0 -1 1 0 0 .0016 16 1169 102 0 ?1175
 1136 1170 1168 0 0 10 30 1172 179 0 1103 1168 1174 0 +.02 -.018 .005 0 0 -1 16
 1103 153 0 ?1101 1116 1157 1172 0 0 10 30 1174 180 0 1116 1172 1095 0 +-.02 -.0
18 .005 0 0 -1 16 1116 154 0 ?1120 1100 1103 1174 0 0 10 30 1095 181 0 1100 1174
 21 0 +-.02 -.01 .005 0 0 -1 17 1175 0 1171 1175 1175 0 1173 1169 0 0 +16 1136 9
 0 ?1106 1134 1169 1155 0 0 10 17 1106 0 1125 1101 1124 25 1129 1136 0 1131 +30
 1155 11 0 1136 0 1137 0 +.02 -.014 .005 0 -1 0 15 1125 171 0 1122 1087 0 17 113
1 0 1127 1129 1107 25 1105 1148 0 0 -17 1105 0 1102 1120 1097 1098 1131 1148 0 0
 +15 1102 165 0 1104 1176 0 17 1104 0 1102 1097 1120 1093 1166 1163 0 0 -14 1176
 166 0 ?1180 1177 1102 19 1178 +0 0 1180 1177 1094 14 1180 158 0 ?1132 1176 1179
 19 1181 -0 0 1132 1176 1094 14 1177 162 0 ?1176 1150 1185 19 1183 -0 0 1176 115
0 1094 50 1178 175 0 1176 1183 1182 0 +3469446951953615e-33 -.018 .005 173472347
5976805e-31 -1 0 1 1734723475976805e-31 0 13 1094 61 0 0 0 0 0 0 23 1087 14 1087
 172 0 ?1145 0 1125 19 20 +0 0 1145 0 1094 14 1145 170 0 ?1150 1087 1139 19 1091
 -0 0 1150 1087 1094 14 1150 168 0 ?1177 1145 1144 19 1182 -0 0 1177 1145 1094 5
0 1091 177 0 1145 1182 20 0 +3469446951953615e-33 -.01 .005 0 -1 0 0 0 -1 50 118
2 176 0 1150 1178 1091 0 +-.02 -.014 .005 1 0 0 0 0 -1 51 1183 174 0 1177 1181 1
178 0 +-.0119693037122488 -.01430618576705456 .005 0 0 -1 .0016 -1 0 0 51 1181 1
73 0 1180 1184 1183 0 +.0104672135785222 -.01430618576705456 .005 0 0 -1 .0016 -
1 0 0 50 1184 142 0 1189 1190 1181 0 +0 -3469446951953615e-33 0 0 0 1 1 0 0 14 1
189 90 0 ?0 1132 1187 19 1184 -0 0 0 1132 1094 50 1190 3 0 1132 0 1184 0 +0 -346
9446951953615e-33 .005 0 0 1 1 0 0 14 1132 1 0 ?1189 1180 1127 19 1190 +0 0 1189
 1180 1094 15 1187 99 0 1123 1189 1188 17 1123 0 1187 1166 1143 1093 1122 1156 0
 1104 +15 1188 100 0 1186 1189 1193 17 1186 0 1188 1186 1186 0 1167 1170 0 0 -15
 1193 101 0 1173 1189 0 17 1173 0 1193 1173 1173 0 1175 1169 0 0 -17 1167 0 1195
 1167 1167 0 1186 1170 0 0 +15 1195 163 0 1167 1177 0 17 1166 0 1187 1146 1123 1
117 1104 1163 0 0 +17 1143 0 1187 1123 1146 1115 1114 1142 0 1122 -17 1122 0 112
5 1124 1101 1115 1123 1156 0 0 -17 1146 0 1187 1143 1166 1112 1118 1162 0 0 -17
 1118 0 1144 1119 1141 1117 1146 1162 0 1166 +15 1185 161 0 1191 1177 1195 17 11
91 0 1185 1191 1191 0 1154 1149 0 0 -17 1154 0 1133 1154 1154 0 1191 1149 0 0 +1
5 1133 7 0 1154 1132 1194 15 1194 8 0 1159 1132 0 17 1159 0 1194 1159 1159 0 119
2 1157 0 0 +17 1192 0 1179 1192 1192 0 1159 1157 0 0 -15 1179 157 0 1192 1180 11
71 15 1171 159 0 1175 1180 0 17 1096 0 1139 1114 1130 1115 1124 24 0 1143 +19 10
89 184 0 10 0 23 19 0 S0 74 20 1088 3 0 0 1196 1086 16 0 0 0 0 0 0 0 0 0 0 0 0 0
 0 0 0 0 81 1 1196 235 165 10 0 1086 0 0 1200 81 1 1086 236 163 10 1196 16 0 0 1
198 98 6 1198 80 97 114 116 32 49 83 3 1200 .615686274509804 .811764705882353 .9
29411764705882 84 6 1090 Part 184 17 15 MZvn/3npta4hrRkMW74 20 8 3 0 0 6 2 9 0 0
 0 0 0 0 0 0 0 0 0 0 0 0 0 0 0 81 1 6 1 163 1 0 2 0 0 1197 98 10 1197 65 115 115
 101 109 98 108 121 32 49 84 10 7 Assembly 11 0 
